<?xml version="1.0" ?><!DOCTYPE svg  PUBLIC '-//W3C//DTD SVG 1.1//EN'  'http://www.w3.org/Graphics/SVG/1.1/DTD/svg11.dtd'><svg enable-background="new 0 0 64 64" height="64px" id="icons" version="1.1" viewBox="0 0 64 64" width="64px" xml:space="preserve" xmlns="http://www.w3.org/2000/svg" xmlns:xlink="http://www.w3.org/1999/xlink"><g><g><path d="M37.501,2H32.5c-0.553,0-1-0.447-1-1s0.447-1,1-1h5.001c0.553,0,1,0.447,1,1S38.054,2,37.501,2z"/></g><g><path d="M36.5,64h-3c-0.553,0-1-0.447-1-1V1c0-0.553,0.447-1,1-1h3c0.553,0,1,0.447,1,1s-0.447,1-1,1h-2v60h2c0.553,0,1,0.447,1,1    S37.053,64,36.5,64z"/></g><g><path d="M38.499,59H33.5c-0.553,0-1-0.447-1-1s0.447-1,1-1h4.999c0.553,0,1,0.447,1,1S39.052,59,38.499,59z"/></g><g><path d="M38.5,64c-0.011,0-0.021,0-0.03,0c-0.552-0.017-0.986-0.478-0.971-1.029l1.001-34C38.517,28.429,38.961,28,39.499,28    c0.011,0,0.021,0,0.03,0c0.552,0.017,0.986,0.478,0.971,1.029l-1.001,34C39.482,63.571,39.038,64,38.5,64z"/></g><g><path d="M38.499,64H36.5c-0.553,0-1-0.447-1-1s0.447-1,1-1h1.999c0.553,0,1,0.447,1,1S39.052,64,38.499,64z"/></g><g><path d="M36.5,59c-0.553,0-1-0.447-1-1V1c0-0.553,0.447-1,1-1s1,0.447,1,1v57C37.5,58.553,37.053,59,36.5,59z"/></g><g><path d="M39.501,22c-0.553,0-1-0.447-1-1c0-1.103-0.897-2-2-2c-0.553,0-1-0.447-1-1s0.447-1,1-1c2.206,0,4,1.794,4,4    C40.501,21.553,40.054,22,39.501,22z"/></g><g><path d="M24.499,24.004c-0.392,0-0.763-0.231-0.923-0.615c-0.213-0.51,0.028-1.096,0.538-1.308l12.002-5.004    c0.51-0.212,1.095,0.027,1.308,0.538c0.213,0.51-0.028,1.096-0.538,1.308l-12.002,5.004    C24.758,23.979,24.628,24.004,24.499,24.004z"/></g><g><path d="M39.501,30c-0.553,0-1-0.447-1-1v-8c0-0.553,0.447-1,1-1s1,0.447,1,1v8C40.501,29.553,40.054,30,39.501,30z"/></g><g><path d="M39.501,30H36.5c-0.553,0-1-0.447-1-1s0.447-1,1-1h3.001c0.553,0,1,0.447,1,1S40.054,30,39.501,30z"/></g><g><path d="M36.5,55h-3c-0.553,0-1-0.447-1-1s0.447-1,1-1h3c0.553,0,1,0.447,1,1S37.053,55,36.5,55z"/></g><g><path d="M36.5,51h-3c-0.553,0-1-0.447-1-1s0.447-1,1-1h3c0.553,0,1,0.447,1,1S37.053,51,36.5,51z"/></g><g><path d="M36.5,47h-3c-0.553,0-1-0.447-1-1s0.447-1,1-1h3c0.553,0,1,0.447,1,1S37.053,47,36.5,47z"/></g><g><path d="M36.5,14h-3c-0.553,0-1-0.447-1-1s0.447-1,1-1h3c0.553,0,1,0.447,1,1S37.053,14,36.5,14z"/></g><g><path d="M36.501,10H33.5c-0.553,0-1-0.447-1-1s0.447-1,1-1h3.001c0.553,0,1,0.447,1,1S37.054,10,36.501,10z"/></g></g></svg>
