<?xml version="1.0" ?><!DOCTYPE svg  PUBLIC '-//W3C//DTD SVG 1.1//EN'  'http://www.w3.org/Graphics/SVG/1.1/DTD/svg11.dtd'><svg enable-background="new 0 0 64 64" height="64px" id="icons" version="1.1" viewBox="0 0 64 64" width="64px" xml:space="preserve" xmlns="http://www.w3.org/2000/svg" xmlns:xlink="http://www.w3.org/1999/xlink"><g><g><path d="M63,10.001L63,10.001L33,10c-0.553,0-1-0.447-1-1s0.448-1,1-1l0,0l30,0.001c0.553,0,1,0.447,1,1S63.552,10.001,63,10.001z    "/></g><g><path d="M33,12.999c-0.553,0-1-0.447-1-1V9c0-0.553,0.447-1,1-1s1,0.447,1,1v2.999C34,12.552,33.553,12.999,33,12.999z"/></g><g><path d="M63,13c-0.553,0-1-0.447-1-1V9.001c0-0.553,0.447-1,1-1s1,0.447,1,1V12C64,12.553,63.553,13,63,13z"/></g><g><path d="M46,25.999c-0.553,0-1-0.447-1-1c0-6.616-5.383-11.999-12-12c-0.553,0-1-0.448-1-1c0-0.553,0.448-1,1-1l0,0    c7.72,0.001,14,6.281,14,14C47,25.552,46.553,25.999,46,25.999z"/></g><g><path d="M50,26c-0.553,0-1-0.447-1-1c0-7.72,6.28-14,14-14c0.553,0,1,0.447,1,1s-0.447,1-1,1c-6.617,0-12,5.383-12,12    C51,25.553,50.553,26,50,26z"/></g><g><path d="M29.498,53.999c-9.649-0.001-17.5-7.851-17.5-17.499c0-0.553,0.447-1,1-1s1,0.447,1,1c0,8.545,6.953,15.498,15.5,15.499    c8.546-0.001,15.498-6.954,15.498-15.499c0-0.553,0.447-1,1-1s1,0.447,1,1C46.996,46.148,39.146,53.998,29.498,53.999z"/></g><g><path d="M45.996,37.5c-0.553,0-1-0.447-1-1c0-8.547-6.953-15.5-15.499-15.5s-15.499,6.953-15.499,15.5c0,0.553-0.447,1-1,1    s-1-0.447-1-1c0-9.649,7.85-17.5,17.499-17.5s17.499,7.851,17.499,17.5C46.996,37.053,46.549,37.5,45.996,37.5z"/></g><g><path d="M31.498,56c-10.752,0-19.5-8.748-19.5-19.5c0-0.553,0.447-1,1-1s1,0.447,1,1c0,9.649,7.851,17.5,17.5,17.5    C41.148,54,49,46.149,49,36.5c0-0.553,0.447-1,1-1s1,0.447,1,1C51,47.252,42.251,56,31.498,56z"/></g><g><path d="M50,37.5c-0.553,0-1-0.447-1-1V25c0-0.553,0.447-1,1-1s1,0.447,1,1v11.5C51,37.053,50.553,37.5,50,37.5z"/></g><g><path d="M46,37.5c-0.553,0-1-0.447-1-1V24.999c0-0.553,0.447-1,1-1s1,0.447,1,1V36.5C47,37.053,46.553,37.5,46,37.5z"/></g><g><path d="M18.85,51c-0.258,0-0.515-0.099-0.71-0.296l-17.85-18c-0.389-0.393-0.387-1.025,0.006-1.414s1.025-0.387,1.414,0.006    l17.85,18c0.389,0.393,0.387,1.025-0.006,1.414C19.358,50.903,19.104,51,18.85,51z"/></g><g><path d="M22.41,39c-0.668,0-1.295-0.26-1.768-0.732s-0.733-1.102-0.732-1.771c0.001-0.668,0.261-1.295,0.733-1.766    c0.944-0.943,2.593-0.94,3.534,0.001c0.472,0.47,0.732,1.099,0.732,1.768c-0.001,0.667-0.261,1.295-0.731,1.767    C23.704,38.74,23.077,39,22.41,39z M22.41,36c-0.134,0-0.259,0.053-0.354,0.147c-0.127,0.126-0.146,0.274-0.146,0.352    s0.019,0.227,0.146,0.354c0.188,0.188,0.515,0.188,0.708-0.001c0.126-0.126,0.146-0.275,0.146-0.354    c0-0.077-0.02-0.226-0.146-0.352C22.637,36.02,22.488,36,22.41,36z"/></g><g><path d="M20.288,36.877c-0.668,0-1.295-0.259-1.767-0.73c-0.473-0.473-0.732-1.101-0.732-1.769s0.261-1.297,0.733-1.769    c0.939-0.941,2.59-0.941,3.533,0c0.473,0.472,0.733,1.101,0.733,1.77c0,0.668-0.261,1.296-0.733,1.769    C21.583,36.618,20.956,36.877,20.288,36.877z M20.288,33.879c-0.077,0-0.226,0.019-0.352,0.145    c-0.129,0.129-0.147,0.277-0.147,0.354c0,0.078,0.019,0.227,0.146,0.354c0.126,0.126,0.275,0.145,0.353,0.145    c0.078,0,0.228-0.019,0.355-0.146c0.127-0.127,0.146-0.275,0.146-0.353c0-0.078-0.019-0.227-0.146-0.354    C20.516,33.897,20.366,33.879,20.288,33.879z"/></g><g><path d="M24.531,41.121c-0.668,0-1.295-0.26-1.768-0.732s-0.732-1.1-0.732-1.768c-0.001-0.668,0.26-1.296,0.733-1.769    c0.938-0.94,2.588-0.945,3.534,0.001c0.975,0.975,0.975,2.561,0,3.535C25.826,40.861,25.199,41.121,24.531,41.121z M24.531,38.121    c-0.077,0-0.226,0.019-0.353,0.146c-0.129,0.129-0.147,0.277-0.147,0.354c0,0.133,0.052,0.259,0.146,0.354    c0.128,0.128,0.276,0.146,0.354,0.146s0.226-0.019,0.354-0.146c0.194-0.195,0.194-0.512,0-0.707    C24.757,38.14,24.608,38.121,24.531,38.121z"/></g><g><path d="M26.652,43.242c-0.667,0-1.295-0.26-1.768-0.732c-0.975-0.975-0.975-2.561,0-3.535c0.945-0.945,2.59-0.945,3.535,0    c0.473,0.473,0.732,1.1,0.732,1.768c0,0.669-0.261,1.297-0.733,1.769C27.948,42.982,27.32,43.242,26.652,43.242z M26.652,40.242    c-0.077,0-0.226,0.019-0.354,0.146c-0.194,0.195-0.194,0.512,0,0.707c0.095,0.095,0.221,0.146,0.354,0.146    c0.077,0,0.226-0.019,0.353-0.146c0.129-0.129,0.147-0.277,0.147-0.354s-0.019-0.226-0.146-0.354S26.729,40.242,26.652,40.242z"/></g><g><path d="M21.35,36.439c-0.256,0-0.512-0.098-0.707-0.293c-0.391-0.391-0.391-1.023,0-1.414l9.545-9.547    c0.391-0.391,1.023-0.391,1.414,0s0.391,1.023,0,1.414l-9.545,9.547C21.861,36.342,21.605,36.439,21.35,36.439z"/></g><g><path d="M23.471,38.561c-0.256,0-0.512-0.098-0.707-0.293c-0.391-0.391-0.391-1.023,0-1.414l12.375-12.375    c0.391-0.391,1.023-0.391,1.414,0s0.391,1.023,0,1.414L24.178,38.268C23.982,38.463,23.727,38.561,23.471,38.561z"/></g><g><path d="M25.592,40.682c-0.256,0-0.512-0.098-0.707-0.293c-0.391-0.391-0.391-1.023,0-1.414l10.254-10.254    c0.391-0.391,1.023-0.391,1.414,0s0.391,1.023,0,1.414L26.299,40.389C26.104,40.584,25.848,40.682,25.592,40.682z"/></g><g><path d="M24.479,45.934c-0.256,0-0.512-0.098-0.707-0.293l-8.434-8.434c-0.391-0.391-0.391-1.023,0-1.414s1.023-0.391,1.414,0    l8.434,8.434c0.391,0.391,0.391,1.023,0,1.414C24.99,45.836,24.734,45.934,24.479,45.934z"/></g><g><path d="M17.461,44.57c-0.256,0-0.512-0.098-0.707-0.293c-0.391-0.39-0.391-1.023,0-1.414l2.826-2.828    c0.391-0.391,1.023-0.391,1.414,0c0.391,0.39,0.391,1.023,0,1.414l-2.826,2.828C17.973,44.473,17.717,44.57,17.461,44.57z"/></g><g><path d="M19.582,46.691c-0.256,0-0.512-0.098-0.707-0.293c-0.391-0.39-0.391-1.023,0-1.414l2.826-2.828    c0.391-0.391,1.023-0.391,1.414,0c0.391,0.39,0.391,1.023,0,1.414l-2.826,2.828C20.094,46.594,19.838,46.691,19.582,46.691z"/></g><g><path d="M21.703,48.813c-0.256,0-0.512-0.098-0.707-0.293c-0.391-0.391-0.391-1.023,0-1.414l15.557-15.557    c0.391-0.391,1.023-0.391,1.414,0s0.391,1.023,0,1.414L22.41,48.52C22.215,48.715,21.959,48.813,21.703,48.813z"/></g><g><path d="M16.045,37.5c-0.256,0-0.512-0.098-0.707-0.293c-0.391-0.391-0.391-1.023,0-1.414l6.366-6.366    c0.391-0.391,1.023-0.391,1.414,0s0.391,1.023,0,1.414l-6.366,6.366C16.557,37.402,16.301,37.5,16.045,37.5z"/></g><g><path d="M19.229,34.317c-0.256,0-0.512-0.098-0.707-0.293l-4.393-4.392c-0.391-0.391-0.391-1.023,0-1.414s1.023-0.391,1.414,0    l4.393,4.392c0.391,0.391,0.391,1.023,0,1.414C19.74,34.22,19.484,34.317,19.229,34.317z"/></g><g><path d="M26.651,31.135c-0.256,0-0.512-0.098-0.707-0.293l-6.937-6.937c-0.391-0.391-0.391-1.023,0-1.414s1.023-0.391,1.414,0    l6.937,6.937c0.391,0.391,0.391,1.023,0,1.414C27.163,31.037,26.907,31.135,26.651,31.135z"/></g><g><path d="M30.845,39.569c-0.256,0-0.512-0.098-0.707-0.293L16.764,25.9c-0.391-0.391-0.391-1.023,0-1.414s1.023-0.391,1.414,0    l13.374,13.376c0.391,0.391,0.391,1.023,0,1.414C31.356,39.472,31.101,39.569,30.845,39.569z"/></g><g><path d="M25.238,29.722c-0.256,0-0.512-0.098-0.707-0.293c-1.56-1.56-1.56-4.098,0-5.657c1.559-1.561,4.098-1.561,5.656,0    c0.391,0.391,0.391,1.023,0,1.414s-1.023,0.391-1.414,0c-0.779-0.779-2.049-0.779-2.828,0c-0.78,0.78-0.78,2.049,0,2.829    c0.391,0.391,0.391,1.023,0,1.414C25.75,29.624,25.494,29.722,25.238,29.722z"/></g><g><path d="M37.258,33.256c-0.256,0-0.512-0.098-0.707-0.293l-7.777-7.777c-0.391-0.391-0.391-1.023,0-1.414s1.023-0.391,1.414,0    l7.777,7.777c0.391,0.391,0.391,1.023,0,1.414C37.77,33.158,37.514,33.256,37.258,33.256z"/></g><g><path d="M35.852,26.193c-0.256,0-0.512-0.098-0.707-0.293c-0.391-0.391-0.391-1.023,0-1.414c0.676-0.676,0.987-1.605,0.854-2.551    c-0.077-0.547,0.304-1.053,0.851-1.13c0.544-0.08,1.054,0.304,1.13,0.851c0.222,1.573-0.296,3.12-1.42,4.244    C36.363,26.096,36.107,26.193,35.852,26.193z"/></g><g><path d="M35.852,26.193c-0.256,0-0.513-0.098-0.708-0.294c-0.761-0.761-2.083-0.76-2.844,0.001c-0.391,0.391-1.023,0.391-1.414,0    s-0.391-1.024,0-1.414c1.518-1.518,4.158-1.519,5.674,0.001c0.39,0.391,0.39,1.023-0.002,1.414    C36.363,26.096,36.107,26.193,35.852,26.193z"/></g><g><path d="M37.626,50.632c-1.604,0-3.112-0.624-4.247-1.759c-2.342-2.342-2.342-6.152,0-8.495c1.135-1.134,2.643-1.759,4.247-1.759    s3.112,0.625,4.247,1.76s1.76,2.643,1.76,4.247s-0.625,3.112-1.76,4.246C40.738,50.007,39.23,50.632,37.626,50.632z     M37.626,40.619c-1.07,0-2.076,0.417-2.833,1.173c-1.562,1.563-1.562,4.104,0,5.667c0.757,0.757,1.763,1.173,2.833,1.173    c1.069,0,2.076-0.417,2.833-1.174s1.174-1.762,1.174-2.832s-0.417-2.076-1.174-2.833S38.696,40.619,37.626,40.619z"/></g><g><path d="M38.687,50.192c-1.204,0-2.336-0.468-3.187-1.319c-1.756-1.756-1.756-4.614-0.001-6.373    c0.391-0.391,1.024-0.39,1.415-0.001c0.391,0.391,0.391,1.023,0.001,1.415c-0.978,0.978-0.978,2.568-0.001,3.545    c0.947,0.947,2.598,0.946,3.545-0.001c0.391-0.391,1.023-0.391,1.414,0c0.391,0.39,0.391,1.023,0,1.414    C41.022,49.724,39.891,50.192,38.687,50.192L38.687,50.192z"/></g><g><path d="M40.085,36.086c-0.256,0-0.513-0.098-0.708-0.293c-0.39-0.392-0.39-1.024,0.001-1.415    c0.189-0.188,0.294-0.439,0.294-0.706s-0.104-0.518-0.293-0.705c-0.379-0.381-1.036-0.38-1.413-0.001    c-0.391,0.391-1.024,0.39-1.415,0.001c-0.391-0.391-0.391-1.023-0.001-1.415c1.135-1.135,3.109-1.135,4.244,0    c0.565,0.565,0.878,1.318,0.878,2.12c0,0.801-0.313,1.555-0.88,2.122C40.597,35.988,40.341,36.086,40.085,36.086z"/></g><g><path d="M42.207,38.207c-0.256,0-0.513-0.098-0.708-0.293c-0.39-0.392-0.39-1.024,0.001-1.415    c0.473-0.471,0.732-1.099,0.732-1.766c0-0.668-0.26-1.296-0.732-1.769c-0.976-0.974-2.562-0.974-3.535,0.001    c-0.391,0.391-1.023,0.391-1.414,0s-0.391-1.023,0-1.414c1.752-1.752,4.607-1.757,6.363-0.001c0.851,0.85,1.318,1.98,1.318,3.183    s-0.469,2.332-1.318,3.182C42.719,38.109,42.463,38.207,42.207,38.207z"/></g><g><path d="M34.086,42.085c-0.256,0-0.512-0.098-0.707-0.293c-0.391-0.391-0.391-1.023,0-1.414l5.999-5.999    c0.391-0.391,1.023-0.391,1.414,0s0.391,1.023,0,1.414l-5.999,5.999C34.598,41.987,34.342,42.085,34.086,42.085z"/></g><g><path d="M34.086,49.166c-0.256,0-0.512-0.098-0.707-0.293l-6.367-6.368c-0.391-0.391-0.391-1.023,0-1.414s1.023-0.391,1.414,0    l6.367,6.368c0.391,0.391,0.391,1.023,0,1.414C34.598,49.068,34.342,49.166,34.086,49.166z"/></g><g><path d="M27.662,47.253c-1.469,0-2.851-0.572-3.891-1.612c-0.391-0.391-0.391-1.023,0-1.414s1.023-0.391,1.414,0    c1.324,1.324,3.627,1.324,4.951,0c0.389-0.391,1.023-0.391,1.414,0c0.391,0.39,0.391,1.023,0,1.414    C30.512,46.681,29.131,47.253,27.662,47.253z"/></g><g><path d="M36.207,44.207c-0.256,0-0.512-0.098-0.707-0.293c-0.391-0.391-0.391-1.023,0-1.414l6-6c0.391-0.391,1.023-0.391,1.414,0    s0.391,1.023,0,1.414l-6,6C36.719,44.109,36.463,44.207,36.207,44.207z"/></g></g></svg>
