<?xml version="1.0" ?><!DOCTYPE svg  PUBLIC '-//W3C//DTD SVG 1.1//EN'  'http://www.w3.org/Graphics/SVG/1.1/DTD/svg11.dtd'><svg enable-background="new 0 0 64 64" id="icons" version="1.1" viewBox="0 0 64 64" xml:space="preserve" xmlns="http://www.w3.org/2000/svg" xmlns:xlink="http://www.w3.org/1999/xlink"><g><g>  <path fill="currentColor" fill="currentColor" d="M49.5,40.5c-0.553,0-1-0.447-1-1s0.447-1,1-1c1.379,0,2.5-1.121,2.5-2.5s-1.121-2.5-2.5-2.5c-0.553,0-1-0.447-1-1    s0.447-1,1-1c2.481,0,4.5,2.019,4.5,4.5S51.981,40.5,49.5,40.5z"/></g><g>  <path fill="currentColor" fill="currentColor" d="M13.876,40.5c-3.309,0-6-2.691-6-6s2.691-6,6-6c0.553,0,1,0.447,1,1s-0.447,1-1,1c-2.206,0-4,1.794-4,4s1.794,4,4,4    c0.553,0,1,0.447,1,1S14.429,40.5,13.876,40.5z"/></g><g>  <path fill="currentColor" fill="currentColor" d="M49.5,40.5H32c-0.553,0-1-0.447-1-1s0.447-1,1-1h17.5c0.553,0,1,0.447,1,1S50.053,40.5,49.5,40.5z"/></g><g>  <path fill="currentColor" fill="currentColor" d="M32,42.5h-3c-0.553,0-1-0.447-1-1v-12c0-0.553,0.447-1,1-1h3c0.553,0,1,0.447,1,1v12C33,42.053,32.553,42.5,32,42.5z     M30,40.5h1v-10h-1V40.5z"/></g><g>  <path fill="currentColor" fill="currentColor" d="M30.5,30.5c-0.553,0-1-0.447-1-1v-3c0-0.553,0.447-1,1-1s1,0.447,1,1v3C31.5,30.053,31.053,30.5,30.5,30.5z"/></g><g>  <path fill="currentColor" fill="currentColor" d="M31.968,27.5H29c-0.553,0-1-0.447-1-1s0.447-1,1-1h2.968c0.553,0,1,0.447,1,1S32.521,27.5,31.968,27.5z"/></g><g>  <path fill="currentColor" fill="currentColor" d="M29,42.5h-3c-0.553,0-1-0.447-1-1v-12c0-0.553,0.447-1,1-1h3c0.553,0,1,0.447,1,1v12C30,42.053,29.553,42.5,29,42.5z     M27,40.5h1v-10h-1V40.5z"/></g><g>  <path fill="currentColor" fill="currentColor" d="M27.5,30.5c-0.553,0-1-0.447-1-1v-3c0-0.553,0.447-1,1-1s1,0.447,1,1v3C28.5,30.053,28.053,30.5,27.5,30.5z"/></g><g>  <path fill="currentColor" fill="currentColor" d="M28.968,27.5H26c-0.553,0-1-0.447-1-1s0.447-1,1-1h2.968c0.553,0,1,0.447,1,1S29.521,27.5,28.968,27.5z"/></g><g>  <path fill="currentColor" fill="currentColor" d="M26,42.5h-3c-0.553,0-1-0.447-1-1v-12c0-0.553,0.447-1,1-1h3c0.553,0,1,0.447,1,1v12C27,42.053,26.553,42.5,26,42.5z     M24,40.5h1v-10h-1V40.5z"/></g><g>  <path fill="currentColor" fill="currentColor" d="M24.5,30.5c-0.553,0-1-0.447-1-1v-3c0-0.553,0.447-1,1-1s1,0.447,1,1v3C25.5,30.053,25.053,30.5,24.5,30.5z"/></g><g>  <path fill="currentColor" fill="currentColor" d="M25.968,27.5H23c-0.553,0-1-0.447-1-1s0.447-1,1-1h2.968c0.553,0,1,0.447,1,1S26.521,27.5,25.968,27.5z"/></g><g>  <path fill="currentColor" fill="currentColor" d="M23,40.5h-9.124c-0.553,0-1-0.447-1-1s0.447-1,1-1H23c0.553,0,1,0.447,1,1S23.553,40.5,23,40.5z"/></g><g>  <path fill="currentColor" fill="currentColor" d="M23,33.5H1.001c-0.553,0-1-0.447-1-1s0.447-1,1-1H23c0.553,0,1,0.447,1,1S23.553,33.5,23,33.5z"/></g><g>  <path fill="currentColor" fill="currentColor" d="M49.5,33.5H31.968c-0.553,0-1-0.447-1-1s0.447-1,1-1H49.5c0.553,0,1,0.447,1,1S50.053,33.5,49.5,33.5z"/></g><g>  <path fill="currentColor" fill="currentColor" d="M23,30.5h-9.124c-0.553,0-1-0.447-1-1s0.447-1,1-1H23c0.553,0,1,0.447,1,1S23.553,30.5,23,30.5z"/></g><g>  <path fill="currentColor" fill="currentColor" d="M53.997,30.5H32c-0.553,0-1-0.447-1-1s0.447-1,1-1h21.997c0.553,0,1,0.447,1,1S54.55,30.5,53.997,30.5z"/></g><g>  <path fill="currentColor" fill="currentColor" d="M53.997,30.5c-0.553,0-1-0.447-1-1s0.447-1,1-1c3.309,0,6-2.691,6-6c0-0.553,0.447-1,1-1s1,0.447,1,1    C61.997,26.911,58.408,30.5,53.997,30.5z"/></g><g>  <path fill="currentColor" fill="currentColor" d="M60.997,37.5c-0.553,0-1-0.447-1-1c0-3.309-2.691-6-6-6c-0.553,0-1-0.447-1-1s0.447-1,1-1c4.411,0,8,3.589,8,8    C61.997,37.053,61.55,37.5,60.997,37.5z"/></g><g>  <path fill="currentColor" fill="currentColor" d="M62.999,23.5h-2.002c-0.553,0-1-0.447-1-1s0.447-1,1-1h2.002c0.553,0,1,0.447,1,1S63.552,23.5,62.999,23.5z"/></g><g>  <path fill="currentColor" fill="currentColor" d="M62.999,37.5c-0.553,0-1-0.447-1-1v-14c0-0.553,0.447-1,1-1s1,0.447,1,1v14C63.999,37.053,63.552,37.5,62.999,37.5z"/></g><g>  <path fill="currentColor" fill="currentColor" d="M62.999,37.5h-2.002c-0.553,0-1-0.447-1-1s0.447-1,1-1h2.002c0.553,0,1,0.447,1,1S63.552,37.5,62.999,37.5z"/></g><g>  <path fill="currentColor" fill="currentColor" d="M48.002,40.5c-0.553,0-1-0.447-1-1v-7c0-0.553,0.447-1,1-1s1,0.447,1,1v7C49.002,40.053,48.555,40.5,48.002,40.5z"/></g><g>  <path fill="currentColor" fill="currentColor" d="M48.002,37.5H32c-0.553,0-1-0.447-1-1s0.447-1,1-1h16.002c0.553,0,1,0.447,1,1S48.555,37.5,48.002,37.5z"/></g><g>  <path fill="currentColor" fill="currentColor" d="M37,37.5c-1.654,0-3-1.346-3-3s1.346-3,3-3s3,1.346,3,3S38.654,37.5,37,37.5z M37,33.5c-0.552,0-1,0.448-1,1s0.448,1,1,1    s1-0.448,1-1S37.552,33.5,37,33.5z"/></g><g>  <path fill="currentColor" fill="currentColor" d="M16,40.5c-0.553,0-1-0.447-1-1c0-2.206,1.794-4,4-4c0.553,0,1,0.447,1,1s-0.447,1-1,1c-1.103,0-2,0.897-2,2    C17,40.053,16.553,40.5,16,40.5z"/></g><g>  <path fill="currentColor" fill="currentColor" d="M23,37.5h-4c-0.553,0-1-0.447-1-1s0.447-1,1-1h4c0.553,0,1,0.447,1,1S23.553,37.5,23,37.5z"/></g><g>  <path fill="currentColor" fill="currentColor" d="M1.001,34.493c-0.553,0-1-0.447-1-1v-2c0-0.553,0.447-1,1-1s1,0.447,1,1v2C2.001,34.046,1.554,34.493,1.001,34.493z"/></g></g></svg>
