<svg enable-background="new 0 0 64 64" id="icons" version="1.1" viewBox="0 0 64 64" xml:space="preserve" xmlns="http://www.w3.org/2000/svg" xmlns:xlink="http://www.w3.org/1999/xlink"><g><g> <path fill="currentColor" d="M34.5,2h-5c-0.553,0-1-0.447-1-1s0.447-1,1-1h5c0.553,0,1,0.447,1,1S35.053,2,34.5,2z"/></g><g> <path fill="currentColor" d="M34.5,19c-0.553,0-1-0.447-1-1V1c0-0.553,0.447-1,1-1s1,0.447,1,1v17C35.5,18.553,35.053,19,34.5,19z"/></g><g> <path fill="currentColor" d="M29.5,19c-0.553,0-1-0.447-1-1V1c0-0.553,0.447-1,1-1s1,0.447,1,1v17C30.5,18.553,30.053,19,29.5,19z"/></g><g> <path fill="currentColor" d="M32.5,10h-1c-0.553,0-1-0.447-1-1s0.447-1,1-1h1c0.553,0,1,0.447,1,1S33.053,10,32.5,10z"/></g><g> <path fill="currentColor" d="M35.5,25.001h-7c-0.553,0-1-0.447-1-1V18c0-0.553,0.447-1,1-1h7c0.553,0,1,0.447,1,1v6.001    C36.5,24.554,36.053,25.001,35.5,25.001z M29.5,23.001h5V19h-5V23.001z"/></g><g> <path fill="currentColor" d="M35.5,22.001h-7c-0.553,0-1-0.447-1-1s0.447-1,1-1h7c0.553,0,1,0.447,1,1S36.053,22.001,35.5,22.001z"/></g><g> <path fill="currentColor" d="M34.5,59c-0.553,0-1-0.447-1-1V25.001h-3V58c0,0.553-0.447,1-1,1s-1-0.447-1-1V24.001c0-0.553,0.447-1,1-1h5    c0.553,0,1,0.447,1,1V58C35.5,58.553,35.053,59,34.5,59z"/></g><g> <path fill="currentColor" d="M28.499,61c-0.15,0-0.303-0.034-0.446-0.105c-0.494-0.247-0.694-0.848-0.447-1.342l1-2    c0.247-0.494,0.849-0.692,1.342-0.447c0.494,0.247,0.694,0.848,0.447,1.342l-1,2C29.219,60.798,28.866,61,28.499,61z"/></g><g> <path fill="currentColor" d="M35.501,61c-0.367,0-0.72-0.202-0.896-0.553l-1-2c-0.247-0.494-0.047-1.095,0.447-1.342    c0.494-0.245,1.094-0.047,1.342,0.447l1,2c0.247,0.494,0.047,1.095-0.447,1.342C35.804,60.966,35.651,61,35.501,61z"/></g><g> <path fill="currentColor" d="M36.5,64h-9c-0.553,0-1-0.447-1-1v-3c0-0.553,0.447-1,1-1h9c0.553,0,1,0.447,1,1v3C37.5,63.553,37.053,64,36.5,64z     M28.5,62h7v-1h-7V62z"/></g><g> <path fill="currentColor" d="M32.03,29c-0.553,0-1.005-0.447-1.005-1s0.442-1,0.994-1h0.011c0.552,0,1,0.447,1,1S32.582,29,32.03,29z"/></g><g> <path fill="currentColor" d="M32.03,33c-0.553,0-1.005-0.447-1.005-1s0.442-1,0.994-1h0.011c0.552,0,1,0.447,1,1S32.582,33,32.03,33z"/></g><g> <path fill="currentColor" d="M32.03,37c-0.553,0-1.005-0.447-1.005-1s0.442-1,0.994-1h0.011c0.552,0,1,0.447,1,1S32.582,37,32.03,37z"/></g><g> <path fill="currentColor" d="M32.03,41c-0.553,0-1.005-0.447-1.005-1s0.442-1,0.994-1h0.011c0.552,0,1,0.447,1,1S32.582,41,32.03,41z"/></g><g> <path fill="currentColor" d="M32.03,45c-0.553,0-1.005-0.447-1.005-1s0.442-1,0.994-1h0.011c0.552,0,1,0.447,1,1S32.582,45,32.03,45z"/></g></g></svg>
