<svg
        enable-background="new 0 0 64 64"
        height="200px"
        id="icons"
        version="1.1"
        viewBox="0 0 64 64"
        width="200px"
      >
        <g>
          <g>
            <path d="M36,64c-1.654,0-3-1.346-3-3c0-0.553,0.447-1,1-1s1,0.447,1,1c0,0.552,0.448,1,1,1c0.553,0,1,0.447,1,1S36.553,64,36,64z" />
          </g>
          <g>
            <path d="M28,64c-0.553,0-1-0.447-1-1s0.447-1,1-1c0.552,0,1-0.448,1-1c0-0.553,0.447-1,1-1s1,0.447,1,1C31,62.654,29.654,64,28,64    z" />
          </g>
          <g>
            <path d="M36,64h-8c-0.553,0-1-0.447-1-1s0.447-1,1-1h8c0.553,0,1,0.447,1,1S36.553,64,36,64z" />
          </g>
          <g>
            <path d="M34,62c-0.553,0-1-0.447-1-1V13c0-0.553,0.447-1,1-1s1,0.447,1,1v48C35,61.553,34.553,62,34,62z" />
          </g>
          <g>
            <path d="M30,62c-0.553,0-1-0.447-1-1V13c0-0.553,0.447-1,1-1s1,0.447,1,1v48C31,61.553,30.553,62,30,62z" />
          </g>

          <g>
            <path
              d="M33,1H31.25 l 0, 12H32.75z"
            />
          </g>
          <g>
            <path d="M34,14h-4c-0.553,0-1-0.447-1-1s0.447-1,1-1h4c0.553,0,1,0.447,1,1S34.553,14,34,14z" />
          </g>
          <g>
            <path d="M32.03,36c-0.553,0-1.005-0.447-1.005-1s0.442-1,0.994-1h0.011c0.552,0,1,0.447,1,1S32.582,36,32.03,36z" />
          </g>
          <g>
            <path d="M32.03,28c-0.553,0-1.005-0.447-1.005-1s0.442-1,0.994-1h0.011c0.552,0,1,0.447,1,1S32.582,28,32.03,28z" />
          </g>
          <g>
            <path d="M32.03,25c-0.553,0-1.005-0.447-1.005-1s0.442-1,0.994-1h0.011c0.552,0,1,0.447,1,1S32.582,25,32.03,25z" />
          </g>
          <g>
            <path d="M32.03,39c-0.553,0-1.005-0.447-1.005-1s0.442-1,0.994-1h0.011c0.552,0,1,0.447,1,1S32.582,39,32.03,39z" />
          </g>
          <g>
            <path d="M32.03,42c-0.553,0-1.005-0.447-1.005-1s0.442-1,0.994-1h0.011c0.552,0,1,0.447,1,1S32.582,42,32.03,42z" />
          </g>
          <g>
            <path d="M34,55h-4c-0.553,0-1-0.447-1-1s0.447-1,1-1h4c0.553,0,1,0.447,1,1S34.553,55,34,55z" />
          </g>
          <g>
            <path d="M34,33h-4c-0.553,0-1-0.447-1-1s0.447-1,1-1h4c0.553,0,1,0.447,1,1S34.553,33,34,33z" />
          </g>
        </g>
      </svg>
