<?xml version="1.0" ?><!DOCTYPE svg  PUBLIC '-//W3C//DTD SVG 1.1//EN'  'http://www.w3.org/Graphics/SVG/1.1/DTD/svg11.dtd'><svg enable-background="new 0 0 64 64" id="icons" version="1.1" viewBox="0 0 64 64" xml:space="preserve" xmlns="http://www.w3.org/2000/svg" xmlns:xlink="http://www.w3.org/1999/xlink"><g><g> <path fill="currentColor" d="M28.499,7.004c-0.553,0-1-0.447-1-1c0-0.552-0.448-1-1-1c-0.553,0-1-0.447-1-1s0.447-1,1-1c1.654,0,3,1.346,3,3    C29.499,6.557,29.052,7.004,28.499,7.004z"/></g><g> <path fill="currentColor" d="M32.498,7c-0.553,0-1-0.447-1-1c0-2.204-1.794-3.998-3.998-3.998c-0.553,0-1-0.447-1-1s0.447-1,1-1    c3.308,0,5.998,2.69,5.998,5.998C33.498,6.553,33.051,7,32.498,7z"/></g><g> <path fill="currentColor" d="M27.5,2h-6c-0.553,0-1-0.447-1-1s0.447-1,1-1h6c0.553,0,1,0.447,1,1S28.053,2,27.5,2z"/></g><g> <path fill="currentColor" d="M33.5,64c-3.859,0-7-3.141-7-7c0-0.553,0.447-1,1-1s1,0.447,1,1c0,2.757,2.243,5,5,5s5-2.243,5-5c0-0.553,0.447-1,1-1    s1,0.447,1,1C40.5,60.859,37.359,64,33.5,64z"/></g><g> <path fill="currentColor" d="M32.501,58c-0.552,0-1-0.447-1-1L31.498,6c0-0.552,0.447-1,1-1c0.552,0,1,0.447,1,1l0.003,51    C33.501,57.552,33.054,58,32.501,58z"/></g><g> <path fill="currentColor" d="M27.5,58c-0.006,0-0.013,0-0.02,0c-0.552-0.011-0.991-0.468-0.98-1.02l0.999-50.996c0.011-0.546,0.456-0.98,1-0.98    c0.006,0,0.013,0,0.02,0c0.552,0.011,0.991,0.468,0.98,1.02L28.5,57.02C28.489,57.565,28.044,58,27.5,58z"/></g><g> <path fill="currentColor" d="M39.501,58c-0.553,0-1-0.447-1-1V45.002c0-0.553,0.447-1,1-1s1,0.447,1,1V57C40.501,57.553,40.054,58,39.501,58z"/></g><g> <path fill="currentColor" d="M39.501,46.002c-0.553,0-1-0.447-1-1c0-2.757,2.243-5,5-5c0.553,0,1,0.447,1,1s-0.447,1-1,1c-1.654,0-3,1.346-3,3    C40.501,45.555,40.054,46.002,39.501,46.002z"/></g><g> <path fill="currentColor" d="M39.501,46.002c-0.553,0-1-0.447-1-1c0-2.757,2.243-5,5-5c0.553,0,1,0.447,1,1s-0.447,1-1,1c-1.654,0-3,1.346-3,3    C40.501,45.555,40.054,46.002,39.501,46.002z"/></g><g> <path fill="currentColor" d="M32.498,44.002c-0.553,0-1-0.447-1-1C31.498,36.936,36.434,32,42.5,32c0.553,0,1,0.447,1,1s-0.447,1-1,1    c-4.964,0-9.002,4.038-9.002,9.002C33.498,43.555,33.051,44.002,32.498,44.002z"/></g><g> <path fill="currentColor" d="M44.499,43.002c-0.475,0-0.896-0.338-0.982-0.821l-2-11c-0.1-0.543,0.261-1.063,0.805-1.162    c0.544-0.104,1.064,0.261,1.162,0.805l2,11c0.1,0.543-0.261,1.063-0.805,1.162C44.618,42.997,44.559,43.002,44.499,43.002z"/></g><g> <path fill="currentColor" d="M44.317,42.002h-0.816c-0.553,0-1-0.447-1-1s0.447-1,1-1h0.816c0.553,0,1,0.447,1,1S44.87,42.002,44.317,42.002z"/></g><g> <path fill="currentColor" d="M42.863,34H42.5c-0.553,0-1-0.447-1-1s0.447-1,1-1h0.363c0.553,0,1,0.447,1,1S43.416,34,42.863,34z"/></g><g> <path fill="currentColor" d="M30.53,20c-0.553,0-1.005-0.447-1.005-1s0.442-1,0.994-1h0.011c0.552,0,1,0.447,1,1S31.082,20,30.53,20z"/></g><g> <path fill="currentColor" d="M30.53,14.998c-0.553,0-1.005-0.447-1.005-1s0.442-1,0.994-1h0.011c0.552,0,1,0.447,1,1S31.082,14.998,30.53,14.998z"/></g><g> <path fill="currentColor" d="M30.53,25c-0.553,0-1.005-0.447-1.005-1s0.442-1,0.994-1h0.011c0.552,0,1,0.447,1,1S31.082,25,30.53,25z"/></g><g> <path fill="currentColor" d="M30.53,29.998c-0.553,0-1.005-0.447-1.005-1s0.442-1,0.994-1h0.011c0.552,0,1,0.447,1,1S31.082,29.998,30.53,29.998z"/></g><g> <path fill="currentColor" d="M30.53,34.998c-0.553,0-1.005-0.447-1.005-1s0.442-1,0.994-1h0.011c0.552,0,1,0.447,1,1S31.082,34.998,30.53,34.998z"/></g><g> <path fill="currentColor" d="M30.53,39.996c-0.553,0-1.005-0.447-1.005-1s0.442-1,0.994-1h0.011c0.552,0,1,0.447,1,1S31.082,39.996,30.53,39.996z"/></g><g> <path fill="currentColor" d="M30.53,44.996c-0.553,0-1.005-0.447-1.005-1s0.442-1,0.994-1h0.011c0.552,0,1,0.447,1,1S31.082,44.996,30.53,44.996z"/></g><g> <path fill="currentColor" d="M30.53,49.994c-0.553,0-1.005-0.447-1.005-1s0.442-1,0.994-1h0.011c0.552,0,1,0.447,1,1S31.082,49.994,30.53,49.994z"/></g><g> <path fill="currentColor" d="M30.53,54.994c-0.553,0-1.005-0.447-1.005-1s0.442-1,0.994-1h0.011c0.552,0,1,0.447,1,1S31.082,54.994,30.53,54.994z"/></g><g> <path fill="currentColor" d="M26.499,5.004H19.5c-0.553,0-1-0.447-1-1s0.447-1,1-1h6.999c0.553,0,1,0.447,1,1S27.052,5.004,26.499,5.004z"/></g><g> <path fill="currentColor" d="M24.5,5.004c-0.553,0-1-0.447-1-1V1.002c0-0.553,0.447-1,1-1s1,0.447,1,1v3.002C25.5,4.557,25.053,5.004,24.5,5.004z"/></g><g> <path fill="currentColor" d="M19.499,5.004c-0.19,0-0.383-0.055-0.554-0.168c-0.459-0.306-0.584-0.927-0.277-1.387l2-3.002    c0.306-0.46,0.925-0.584,1.387-0.277c0.459,0.306,0.584,0.927,0.277,1.387l-2,3.002C20.14,4.848,19.822,5.004,19.499,5.004z"/></g></g></svg>
