<?xml version="1.0" ?><!DOCTYPE svg  PUBLIC '-//W3C//DTD SVG 1.1//EN'  'http://www.w3.org/Graphics/SVG/1.1/DTD/svg11.dtd'><svg enable-background="new 0 0 64 64" id="icons" version="1.1" viewBox="0 0 64 64" xml:space="preserve" xmlns="http://www.w3.org/2000/svg" xmlns:xlink="http://www.w3.org/1999/xlink"><g><g> <path fill="currentColor" d="M1.5,32.5c-0.553,0-1-0.447-1-1c0-2.206,1.794-4,4-4c0.553,0,1,0.447,1,1s-0.447,1-1,1c-1.103,0-2,0.897-2,2    C2.5,32.053,2.053,32.5,1.5,32.5z"/></g><g> <path fill="currentColor" d="M4.5,37.5c-2.206,0-4-1.794-4-4c0-0.553,0.447-1,1-1s1,0.447,1,1c0,1.103,0.897,2,2,2c0.553,0,1,0.447,1,1    S5.053,37.5,4.5,37.5z"/></g><g> <path fill="currentColor" d="M27.498,29.5H4.5c-0.553,0-1-0.447-1-1s0.447-1,1-1h22.998c0.553,0,1,0.447,1,1S28.051,29.5,27.498,29.5z"/></g><g> <path fill="currentColor" d="M27.498,29.5c-0.553,0-1-0.447-1-1s0.447-1,1-1c2.757,0,5-2.243,5-5c0-0.553,0.447-1,1-1s1,0.447,1,1    C34.498,26.359,31.357,29.5,27.498,29.5z"/></g><g> <path fill="currentColor" d="M33.498,35.498c-0.553,0-1-0.447-1-1c0-2.757-2.243-5-5-5c-0.553,0-1-0.447-1-1s0.447-1,1-1c3.859,0,7,3.141,7,7    C34.498,35.051,34.051,35.498,33.498,35.498z"/></g><g> <path fill="currentColor" d="M35.5,23.5h-2.002c-0.553,0-1-0.447-1-1s0.447-1,1-1H35.5c0.553,0,1,0.447,1,1S36.053,23.5,35.5,23.5z"/></g><g> <path fill="currentColor" d="M35.5,35.5c-0.553,0-1-0.447-1-1v-12c0-0.553,0.447-1,1-1s1,0.447,1,1v12C36.5,35.053,36.053,35.5,35.5,35.5z"/></g><g> <path fill="currentColor" d="M35.5,35.5h-2.002c-0.553,0-1-0.447-1-1s0.447-1,1-1H35.5c0.553,0,1,0.447,1,1S36.053,35.5,35.5,35.5z"/></g><g> <path fill="currentColor" d="M1.5,34.5c-0.553,0-1-0.447-1-1v-2c0-0.553,0.447-1,1-1s1,0.447,1,1v2C2.5,34.053,2.053,34.5,1.5,34.5z"/></g><g> <path fill="currentColor" d="M60.5,37.5h-56c-0.553,0-1-0.447-1-1s0.447-1,1-1h56c0.553,0,1,0.447,1,1S61.053,37.5,60.5,37.5z"/></g><g> <path fill="currentColor" d="M60.5,41.504c-0.553,0-1-0.447-1-1s0.447-1,1-1c0.552,0,1-0.448,1-1s-0.448-1-1-1c-0.553,0-1-0.447-1-1s0.447-1,1-1    c1.654,0,3,1.346,3,3S62.154,41.504,60.5,41.504z"/></g><g> <path fill="currentColor" d="M60.5,41.504h-42c-0.553,0-1-0.447-1-1s0.447-1,1-1h42c0.553,0,1,0.447,1,1S61.053,41.504,60.5,41.504z"/></g><g> <path fill="currentColor" d="M17.479,37.502c-0.553,0-1-0.447-1-1v-6c0-0.553,0.447-1,1-1s1,0.447,1,1v6C18.479,37.055,18.031,37.502,17.479,37.502z"/></g><g> <path fill="currentColor" d="M7.5,33.5c-1.654,0-3-1.346-3-3s1.346-3,3-3c0.553,0,1,0.447,1,1s-0.447,1-1,1c-0.552,0-1,0.448-1,1s0.448,1,1,1    c0.553,0,1,0.447,1,1S8.053,33.5,7.5,33.5z"/></g><g> <path fill="currentColor" d="M15.504,33.5c-0.553,0-1-0.447-1-1s0.447-1,1-1c0.552,0,1-0.448,1-1s-0.448-1-1-1c-0.553,0-1-0.447-1-1s0.447-1,1-1    c1.654,0,3,1.346,3,3S17.158,33.5,15.504,33.5z"/></g><g> <path fill="currentColor" d="M15.5,33.5h-8c-0.553,0-1-0.447-1-1s0.447-1,1-1h8c0.553,0,1,0.447,1,1S16.053,33.5,15.5,33.5z"/></g><g> <path fill="currentColor" d="M13.5,37.502c-0.553,0-1-0.447-1-1v-3.99c0-0.553,0.447-1,1-1s1,0.447,1,1v3.99C14.5,37.055,14.053,37.502,13.5,37.502z"/></g><g> <path fill="currentColor" d="M5.5,37.5c-0.553,0-1-0.447-1-1v-6c0-0.553,0.447-1,1-1s1,0.447,1,1v6C6.5,37.053,6.053,37.5,5.5,37.5z"/></g><g> <path fill="currentColor" d="M9.5,37.5c-0.553,0-1-0.447-1-1v-4c0-0.553,0.447-1,1-1s1,0.447,1,1v4C10.5,37.053,10.053,37.5,9.5,37.5z"/></g><g> <path fill="currentColor" d="M18.5,42.5c-0.553,0-1-0.447-1-1v-2c0-0.553,0.447-1,1-1s1,0.447,1,1v2C19.5,42.053,19.053,42.5,18.5,42.5z"/></g><g> <path fill="currentColor" d="M23.5,41.504c-0.553,0-1-0.447-1-1V36.5c0-0.553,0.447-1,1-1s1,0.447,1,1v4.004C24.5,41.057,24.053,41.504,23.5,41.504z"/></g><g> <path fill="currentColor" d="M27.5,41.504c-0.553,0-1-0.447-1-1V36.5c0-0.553,0.447-1,1-1s1,0.447,1,1v4.004C28.5,41.057,28.053,41.504,27.5,41.504z"/></g><g> <path fill="currentColor" d="M11.541,33.5c-0.553,0-1-0.447-1-1v-4c0-0.553,0.447-1,1-1s1,0.447,1,1v4C12.541,33.053,12.094,33.5,11.541,33.5z"/></g></g></svg>
