<?xml version="1.0" ?><svg height="100px" id="Слой_1" style="enable-background:new 0 0 100 100;" version="1.1" viewBox="0 0 100 100" width="100px" xml:space="preserve" xmlns="http://www.w3.org/2000/svg" xmlns:xlink="http://www.w3.org/1999/xlink"><g><path d="M33.67272,52.17982c-0.02552,0-0.05105-0.00098-0.07658-0.00196c-0.94252-0.04123-1.67494-0.83943-1.6337-1.78293   c0.05498-1.28517,0.11192-2.57132,0.11192-3.8015c0-0.94448,0.7658-1.71029,1.71029-1.71029   c0.94448,0,1.71028,0.7658,1.71028,1.71029c0,1.27731-0.05695,2.61451-0.11585,3.95073   C35.3398,51.46214,34.58186,52.17982,33.67272,52.17982z M33.72573,42.31968c-0.91307,0-1.67101-0.72358-1.70636-1.6445   c-0.60282-15.70083-4.58301-26.54571-11.8306-32.2352c-0.74224-0.58318-0.87183-1.65825-0.28865-2.40146   c0.58122-0.74125,1.65334-0.8738,2.40146-0.28865c8.0723,6.33845,12.49037,18.04437,13.13442,34.79375   c0.03731,0.9435-0.69904,1.73777-1.64352,1.7741C33.7709,42.3187,33.7493,42.31968,33.72573,42.31968z"/><path d="M50.08437,52.17982c-0.90914,0-1.66708-0.71769-1.70636-1.63567c-0.05891-1.33622-0.11585-2.67342-0.11585-3.95073   c0-0.94448,0.7658-1.71029,1.71028-1.71029s1.71029,0.7658,1.71029,1.71029c0,1.23019,0.05694,2.51633,0.11192,3.8015   c0.04124,0.9435-0.69118,1.7417-1.6337,1.78293C50.13542,52.17884,50.10989,52.17982,50.08437,52.17982z M50.03135,42.31968   c-0.02356,0-0.04516-0.00098-0.06676-0.00196c-0.94448-0.03633-1.68083-0.8306-1.64352-1.7741   c0.58908-15.34247,4.34738-26.4544,11.17869-33.08347C47.57294,1.7255,33.75715,2.10055,22.07578,8.58921   c-0.82863,0.45751-1.86737,0.162-2.32489-0.66369c-0.45948-0.82569-0.16101-1.86639,0.66369-2.32489   c13.44074-7.4685,29.48716-7.46653,42.9279,0c0.50072,0.27785,0.82864,0.78838,0.87379,1.3588   c0.04517,0.5714-0.19832,1.1271-0.64798,1.48054c-7.24759,5.68949-11.22778,16.53437-11.8306,32.2352   C51.70236,41.5961,50.94442,42.31968,50.03135,42.31968z"/><path d="M56.24217,100c-13.38969,0-24.2817-10.89299-24.2817-24.28072V50.46954c0-0.94448,0.7658-1.71029,1.71028-1.71029   c0.94448,0,1.71029,0.7658,1.71029,1.71029v25.24974c0,11.50269,9.35845,20.86015,20.86113,20.86015   c11.47126,0,20.80222-9.35747,20.80222-20.86015V50.46954c0-0.94448,0.7658-1.71029,1.71029-1.71029   c0.94448,0,1.71028,0.7658,1.71028,1.71029v25.24974C80.46496,89.10701,69.59847,100,56.24217,100z"/><path d="M78.75468,52.17982c-0.94449,0-1.71029-0.7658-1.71029-1.71028V34.05495c0-7.13469-5.80239-12.93806-12.9361-12.93806   c-4.36309,0-8.43164,2.22572-10.88219,5.95457c-0.51839,0.78838-1.57676,1.01125-2.36808,0.48893   c-0.78936-0.51839-1.00928-1.57872-0.49089-2.36808c3.08675-4.69297,8.2235-7.49599,13.74117-7.49599   c9.01875,0,16.35667,7.3389,16.35667,16.35863v16.41459C80.46496,51.41403,79.69916,52.17982,78.75468,52.17982z"/><path d="M60.68773,87.06194c-6.78811,0-12.31168-5.54909-12.31168-12.36862V50.46954c0-0.94448,0.7658-1.71029,1.71028-1.71029   c0.94448,0,1.71029,0.7658,1.71029,1.71029v24.22377c0,4.93449,3.98804,8.94806,8.89111,8.94806s8.89112-4.01357,8.89112-8.94806   V50.46954c0-0.94448,0.76579-1.71029,1.71028-1.71029c0.94448,0,1.71028,0.7658,1.71028,1.71029v24.22377   C72.9994,81.51285,67.47584,87.06194,60.68773,87.06194z"/><path d="M71.28912,52.17982c-0.94449,0-1.71028-0.7658-1.71028-1.71028V40.6094c0-3.23697-2.63317-5.87014-5.87112-5.87014   c-3.2674,0-5.9261,2.63317-5.9261,5.87014c0,0.94448-0.7658,1.71029-1.71029,1.71029s-1.71028-0.7658-1.71028-1.71029   c0-5.12299,4.19225-9.2907,9.34666-9.2907c5.12299,0,9.29169,4.16771,9.29169,9.2907v9.86015   C72.9994,51.41403,72.2336,52.17982,71.28912,52.17982z M56.07133,50.4126c-0.94448,0-1.71028-0.7658-1.71028-1.71028v-2.10889   c0-0.94448,0.7658-1.71029,1.71028-1.71029s1.71029,0.7658,1.71029,1.71029v2.10889   C57.78162,49.6468,57.01582,50.4126,56.07133,50.4126z"/><path d="M59.54688,73.6104c-2.80989,0-5.18583-2.37594-5.18583-5.18681V48.70232c0-2.81087,2.37594-5.18681,5.18583-5.18681   c2.86094,0,5.18779,2.32685,5.18779,5.18681v19.72127C64.73467,71.28355,62.40783,73.6104,59.54688,73.6104z M59.54688,46.93607   c-0.94056,0-1.76526,0.82471-1.76526,1.76625v19.72127c0,0.94154,0.8247,1.76624,1.76526,1.76624   c0.95823,0,1.76723-0.809,1.76723-1.76624V48.70232C61.31411,47.74507,60.50511,46.93607,59.54688,46.93607z"/><path d="M65.07634,60.27372h-4.5025c-0.94448,0-1.71028-0.7658-1.71028-1.71028s0.7658-1.71029,1.71028-1.71029h4.5025   c0.94448,0,1.71028,0.7658,1.71028,1.71029S66.02082,60.27372,65.07634,60.27372z"/><path d="M65.07634,53.54746h-4.5025c-0.94448,0-1.71028-0.7658-1.71028-1.71028s0.7658-1.71029,1.71028-1.71029h4.5025   c0.94448,0,1.71028,0.7658,1.71028,1.71029S66.02082,53.54746,65.07634,53.54746z"/><path d="M65.07634,66.999h-4.5025c-0.94448,0-1.71028-0.76579-1.71028-1.71028c0-0.94448,0.7658-1.71028,1.71028-1.71028h4.5025   c0.94448,0,1.71028,0.7658,1.71028,1.71028C66.78662,66.23321,66.02082,66.999,65.07634,66.999z"/><path d="M50.31214,78.74026c-0.81096,0-1.52963-0.57828-1.68083-1.40397c-0.16887-0.92976,0.4477-1.81926,1.37647-1.98813   c1.83988-0.33479,4.2924-1.41869,4.35327-6.94422c0.01178-0.93761,0.77365-1.69064,1.71028-1.69064c0.00589,0,0.01178,0,0.01964,0   c0.94448,0.0108,1.70047,0.78543,1.69065,1.72992c-0.08443,7.42628-3.94092,9.68342-7.1612,10.26857   C50.51635,78.73142,50.41425,78.74026,50.31214,78.74026z"/><path d="M56.07133,48.30371H26.26215c-0.94448,0-1.71028-0.7658-1.71028-1.71028V40.6094c0-0.94448,0.7658-1.71028,1.71028-1.71028   h29.80919c0.94448,0,1.71029,0.7658,1.71029,1.71028v5.98403C57.78162,47.53791,57.01582,48.30371,56.07133,48.30371z    M27.97243,44.88314h26.38862v-2.56346H27.97243V44.88314z"/><path d="M26.26215,50.12788h-4.90111c-0.94448,0-1.71028-0.7658-1.71028-1.71029v-9.63237   c0-0.94448,0.7658-1.71029,1.71028-1.71029h4.90111c0.94448,0,1.71028,0.7658,1.71028,1.71029v9.63237   C27.97243,49.36208,27.20663,50.12788,26.26215,50.12788z M23.07132,46.70731h1.48054v-6.2118h-1.48054V46.70731z"/></g></svg>
